  0
SECTION
  2
HEADER
  9
$ACADVER
  1
AC1014
  9
$HANDSEED
  5
FFFF
  9
$MEASUREMENT
 70
     1
  0
ENDSEC
  0
SECTION
  2
TABLES
  0
TABLE
  2
VPORT
  5
8
330
0
100
AcDbSymbolTable
 70
     4
  0
VPORT
  5
2E
330
8
100
AcDbSymbolTableRecord
100
AcDbViewportTableRecord
  2
*ACTIVE
 70
     0
 10
0.0
 20
0.0
 11
1.0
 21
1.0
 12
210.0
 22
148.5
 13
0.0
 23
0.0
 14
10.0
 24
10.0
 15
10.0
 25
10.0
 16
0.0
 26
0.0
 36
1.0
 17
0.0
 27
0.0
 37
0.0
 40
341.0
 41
1.24
 42
50.0
 43
0.0
 44
0.0
 50
0.0
 51
0.0
 71
     0
 72
   100
 73
     1
 74
     3
 75
     0
 76
     0
 77
     0
 78
     0
  0
ENDTAB
  0
TABLE
  2
LTYPE
  5
5
330
0
100
AcDbSymbolTable
 70
     1
  0
LTYPE
  5
14
330
5
100
AcDbSymbolTableRecord
100
AcDbLinetypeTableRecord
  2
BYBLOCK
 70
     0
  3

 72
    65
 73
     0
 40
0.0
  0
LTYPE
  5
15
330
5
100
AcDbSymbolTableRecord
100
AcDbLinetypeTableRecord
  2
BYLAYER
 70
     0
  3

 72
    65
 73
     0
 40
0.0
  0
LTYPE
  5
16
330
5
100
AcDbSymbolTableRecord
100
AcDbLinetypeTableRecord
  2
CONTINUOUS
 70
     0
  3
Solid line
 72
    65
 73
     0
 40
0.0
  0
ENDTAB
  0
TABLE
  2
LAYER
  5
2
100
AcDbSymbolTable
 70
2
  0
LAYER
  5
50
100
AcDbSymbolTableRecord
100
AcDbLayerTableRecord
  2
0
 70
0
  6
CONTINUOUS
  0
LAYER
  5
51
100
AcDbSymbolTableRecord
100
AcDbLayerTableRecord
  2
Layer_1
 70
0
  6
CONTINUOUS
  0
ENDTAB
  0
TABLE
  2
STYLE
  5
3
330
0
100
AcDbSymbolTable
 70
     1
  0
STYLE
  5
11
330
3
100
AcDbSymbolTableRecord
100
AcDbTextStyleTableRecord
  2
STANDARD
 70
     0
 40
0.0
 41
1.0
 50
0.0
 71
     0
 42
2.5
  3
txt
  4

  0
ENDTAB
  0
TABLE
  2
VIEW
  5
6
330
0
100
AcDbSymbolTable
 70
     0
  0
ENDTAB
  0
TABLE
  2
UCS
  5
7
330
0
100
AcDbSymbolTable
 70
     0
  0
ENDTAB
  0
TABLE
  2
APPID
  5
9
330
0
100
AcDbSymbolTable
 70
     2
  0
APPID
  5
12
330
9
100
AcDbSymbolTableRecord
100
AcDbRegAppTableRecord
  2
ACAD
 70
     0
  0
ENDTAB
  0
TABLE
  2
DIMSTYLE
  5
A
330
0
100
AcDbSymbolTable
 70
     1
  0
DIMSTYLE
105
27
330
A
100
AcDbSymbolTableRecord
100
AcDbDimStyleTableRecord
  2
ISO-25
 70
     0
  3

  4

  5

  6

  7

 40
1.0
 41
2.5
 42
0.625
 43
3.75
 44
1.25
 45
0.0
 46
0.0
 47
0.0
 48
0.0
140
2.5
141
2.5
142
0.0
143
0.03937007874016
144
1.0
145
0.0
146
1.0
147
0.625
 71
     0
 72
     0
 73
     0
 74
     0
 75
     0
 76
     0
 77
     1
 78
     8
170
     0
171
     3
172
     1
173
     0
174
     0
175
     0
176
     0
177
     0
178
     0
270
     2
271
     2
272
     2
273
     2
274
     3
340
11
275
     0
280
     0
281
     0
282
     0
283
     0
284
     8
285
     0
286
     0
287
     3
288
     0
  0
ENDTAB
  0
TABLE
  2
BLOCK_RECORD
  5
1
330
0
100
AcDbSymbolTable
 70
     1
  0
BLOCK_RECORD
  5
1F
330
1
100
AcDbSymbolTableRecord
100
AcDbBlockTableRecord
  2
*MODEL_SPACE
  0
BLOCK_RECORD
  5
1B
330
1
100
AcDbSymbolTableRecord
100
AcDbBlockTableRecord
  2
*PAPER_SPACE
  0
ENDTAB
  0
ENDSEC
  0
SECTION
  2
BLOCKS
  0
BLOCK
  5
20
330
1F
100
AcDbEntity
  8
0
100
AcDbBlockBegin
  2
*MODEL_SPACE
 70
     0
 10
0.0
 20
0.0
 30
0.0
  3
*MODEL_SPACE
  1

  0
ENDBLK
  5
21
330
1F
100
AcDbEntity
  8
0
100
AcDbBlockEnd
  0
BLOCK
  5
1C
330
1B
100
AcDbEntity
 67
     1
  8
0
100
AcDbBlockBegin
  2
*PAPER_SPACE
  1

  0
ENDBLK
  5
1D
330
1B
100
AcDbEntity
 67
     1
  8
0
100
AcDbBlockEnd
  0
ENDSEC
  0
SECTION
  2
ENTITIES
  0
LWPOLYLINE
  5
100
100
AcDbEntity
  8
Layer_1
 62
7
100
AcDbPolyline
 90
860
 70
1
 10
-1.89036
 20
-15.22708675717193
 30
0.0
 10
-1.741168
 20
-15.20039675717193
 30
0.0
 10
-1.61387
 20
-15.12628075717193
 30
0.0
 10
-1.518984
 20
-15.013666757171931
 30
0.0
 10
-1.467026
 20
-14.87148675717193
 30
0.0
 10
-1.427162
 20
-14.26611975717193
 30
0.0
 10
-1.398568
 20
-14.137484757171931
 30
0.0
 10
-1.359437
 20
-14.01355575717193
 30
0.0
 10
-1.310296
 20
-13.894790757171931
 30
0.0
 10
-1.251672
 20
-13.78164575717193
 30
0.0
 10
-1.184092
 20
-13.67457775717193
 30
0.0
 10
-1.108081
 20
-13.574044757171931
 30
0.0
 10
-1.024167
 20
-13.48050175717193
 30
0.0
 10
-0.932877
 20
-13.394405757171931
 30
0.0
 10
-0.834736
 20
-13.316214757171931
 30
0.0
 10
-0.730271
 20
-13.24638575717193
 30
0.0
 10
-0.62001
 20
-13.18537375717193
 30
0.0
 10
-0.504478
 20
-13.133636757171931
 30
0.0
 10
-0.384202
 20
-13.09163175717193
 30
0.0
 10
-0.259708
 20
-13.05981575717193
 30
0.0
 10
-0.131524
 20
-13.038643757171931
 30
0.0
 10
-1.76E-4
 20
-13.02857575717193
 30
0.0
 10
0.131296
 20
-13.03858275717193
 30
0.0
 10
0.259588
 20
-13.05969975717193
 30
0.0
 10
0.384174
 20
-13.09147075717193
 30
0.0
 10
0.504527
 20
-13.13343875717193
 30
0.0
 10
0.620123
 20
-13.18514675717193
 30
0.0
 10
0.730433
 20
-13.24613775717193
 30
0.0
 10
0.834934
 20
-13.31595475717193
 30
0.0
 10
0.933097
 20
-13.39414175717193
 30
0.0
 10
1.024398
 20
-13.48024075717193
 30
0.0
 10
1.108311
 20
-13.573795757171931
 30
0.0
 10
1.184308
 20
-13.674350757171931
 30
0.0
 10
1.251865
 20
-13.78144775717193
 30
0.0
 10
1.310455
 20
-13.89462975717193
 30
0.0
 10
1.359552
 20
-14.01343975717193
 30
0.0
 10
1.39863
 20
-14.13742275717193
 30
0.0
 10
1.427162
 20
-14.26611975717193
 30
0.0
 10
1.467026
 20
-14.87148675717193
 30
0.0
 10
1.518984
 20
-15.013666757171931
 30
0.0
 10
1.61387
 20
-15.12628075717193
 30
0.0
 10
1.741168
 20
-15.20039675717193
 30
0.0
 10
1.89036
 20
-15.22708675717193
 30
0.0
 10
2.907589386644128
 20
-15.065973450086627
 30
0.0
 10
3.0412317468433674
 20
-14.994486888241923
 30
0.0
 10
3.139396235699614
 20
-14.88466113813025
 30
0.0
 10
3.1948385445002563
 20
-14.748237473075926
 30
0.0
 10
3.200317502713689
 20
-14.596960352595348
 30
0.0
 10
3.0511617288455
 20
-14.008903469031535
 30
0.0
 10
3.038605837801023
 20
-13.877728282120753
 30
0.0
 10
3.037525463244276
 20
-13.747772655105924
 30
0.0
 10
3.0475609281745957
 20
-13.619635023827552
 30
0.0
 10
3.0683519375573285
 20
-13.493911922013098
 30
0.0
 10
3.0995385053748183
 20
-13.37120083444655
 30
0.0
 10
3.140762856739433
 20
-13.252099578934416
 30
0.0
 10
3.191663436543009
 20
-13.137204047164639
 30
0.0
 10
3.251880258767888
 20
-13.027111723921202
 30
0.0
 10
3.3210555485264384
 20
-12.922420427010618
 30
0.0
 10
3.3988293198010036
 20
-12.823727641216863
 30
0.0
 10
3.4848400174834193
 20
-12.731629258227889
 30
0.0
 10
3.5787298666860545
 20
-12.646723095850199
 30
0.0
 10
3.68013888139125
 20
-12.569606638867779
 30
0.0
 10
3.788708026637866
 20
-12.500877063047618
 30
0.0
 10
3.9040757473177377
 20
-12.441130260077658
 30
0.0
 10
4.025883935520707
 20
-12.390966258894439
 30
0.0
 10
4.154013570893773
 20
-12.35985639916854
 30
0.0
 10
4.282552025352526
 20
-12.340295451380795
 30
0.0
 10
4.41085813141996
 20
-12.33201227669881
 30
0.0
 10
4.53828946154556
 20
-12.334735094250679
 30
0.0
 10
4.6642064413483535
 20
-12.348191196113502
 30
0.0
 10
4.787964741164794
 20
-12.372109419449357
 30
0.0
 10
4.90892573767043
 20
-12.40621674731836
 30
0.0
 10
5.026445410218705
 20
-12.450242967939102
 30
0.0
 10
5.139883875411658
 20
-12.503914422332171
 30
0.0
 10
5.248599965772281
 20
-12.566959971665181
 30
0.0
 10
5.351950611710537
 20
-12.639109095139727
 30
0.0
 10
5.4492959298284624
 20
-12.7200881337764
 30
0.0
 10
5.539993492575541
 20
-12.809625306703289
 30
0.0
 10
5.623401823457772
 20
-12.907448524031489
 30
0.0
 10
5.698880064015142
 20
-13.013287597985126
 30
0.0
 10
5.7657851686631485
 20
-13.126868845579258
 30
0.0
 10
5.990766776462516
 20
-13.690288422215543
 30
0.0
 10
6.084117807196411
 20
-13.809453732708656
 30
0.0
 10
6.209159395606132
 20
-13.887234624706457
 30
0.0
 10
6.353130091572567
 20
-13.918385884118248
 30
0.0
 10
6.503267778931541
 20
-13.897666719113378
 30
0.0
 10
7.420923665757055
 20
-13.4300976908974
 30
0.0
 10
7.525934540798154
 20
-13.320812169957513
 30
0.0
 10
7.585356494389188
 20
-13.186027179356094
 30
0.0
 10
7.595928032515786
 20
-13.03914794810253
 30
0.0
 10
7.554391630338574
 20
-12.893581765703685
 30
0.0
 10
7.230816488977801
 20
-12.38039810357252
 30
0.0
 10
7.178339764986315
 20
-12.259523070997048
 30
0.0
 10
7.137153770461847
 20
-12.136261779193699
 30
0.0
 10
7.107101359093911
 20
-12.011294520773856
 30
0.0
 10
7.088024209001515
 20
-11.885299970314906
 30
0.0
 10
7.079764586088925
 20
-11.758957611411244
 30
0.0
 10
7.08216696207964
 20
-11.632946561103745
 30
0.0
 10
7.095071618290424
 20
-11.507945272738057
 30
0.0
 10
7.118320820625541
 20
-11.384633229908573
 30
0.0
 10
7.151759040808491
 20
-11.263689549656165
 30
0.0
 10
7.195228544743539
 20
-11.145793715575223
 30
0.0
 10
7.2485696137474465
 20
-11.0316241810114
 30
0.0
 10
7.3116267195437175
 20
-10.92186006300557
 30
0.0
 10
7.384242128036613
 20
-10.81718084515212
 30
0.0
 10
7.4662589141473905
 20
-10.718265423260188
 30
0.0
 10
7.557517359192812
 20
-10.625792250675422
 30
0.0
 10
7.657862301449892
 20
-10.540442650257944
 30
0.0
 10
7.770107350754047
 20
-10.471261180631258
 30
0.0
 10
7.8863100201690575
 20
-10.412937046914367
 30
0.0
 10
8.005776736680838
 20
-10.365410512400544
 30
0.0
 10
8.127812530473056
 20
-10.328621619151315
 30
0.0
 10
8.251724858780362
 20
-10.302508645872454
 30
0.0
 10
8.376817133752432
 20
-10.287012810195995
 30
0.0
 10
8.502397621640913
 20
-10.282071803042456
 30
0.0
 10
8.627770322380734
 20
-10.287627651060863
 30
0.0
 10
8.75224210542129
 20
-10.303617823939996
 30
0.0
 10
8.875119397748497
 20
-10.329982584973125
 30
0.0
 10
8.99570700831428
 20
-10.366663373024029
 30
0.0
 10
9.113311806568033
 20
-10.413597657781478
 30
0.0
 10
9.22723882269343
 20
-10.470725481307008
 30
0.0
 10
9.336793895891127
 20
-10.537986297876893
 30
0.0
 10
9.441284040932288
 20
-10.615321179801395
 30
0.0
 10
9.540013112430078
 20
-10.702668551108058
 30
0.0
 10
9.928089560718377
 20
-11.16898927064445
 30
0.0
 10
10.053695772883056
 20
-11.25347516076607
 30
0.0
 10
10.19665300781298
 20
-11.288809209121586
 30
0.0
 10
10.343203544921831
 20
-11.273946425630353
 30
0.0
 10
10.479590396730305
 20
-11.2078462318502
 30
0.0
 10
11.2078462318502
 20
-10.479590396730305
 30
0.0
 10
11.273946425630353
 20
-10.343203544921831
 30
0.0
 10
11.288809209121586
 20
-10.19665300781298
 30
0.0
 10
11.25347516076607
 20
-10.053695772883056
 30
0.0
 10
11.16898927064445
 20
-9.928089560718377
 30
0.0
 10
10.702668551108058
 20
-9.540013112430078
 30
0.0
 10
10.61540778154069
 20
-9.441270324564279
 30
0.0
 10
10.538147739152254
 20
-9.336769042026038
 30
0.0
 10
10.470949190898217
 20
-9.227204822416944
 30
0.0
 10
10.413871285700056
 20
-9.113272047768072
 30
0.0
 10
10.366973981496244
 20
-8.995665687895766
 30
0.0
 10
10.330319220812752
 20
-8.875079682367613
 30
0.0
 10
10.303964755768808
 20
-8.752208634446438
 30
0.0
 10
10.287970544302883
 20
-8.627747513948576
 30
0.0
 10
10.282398528940947
 20
-8.502390260441624
 30
0.0
 10
10.28730866762147
 20
-8.376831843741913
 30
0.0
 10
10.302758712463687
 20
-8.251766867112268
 30
0.0
 10
10.328810605993565
 20
-8.127889270120287
 30
0.0
 10
10.365524306149574
 20
-8.0058940225823
 30
0.0
 10
10.41296035865544
 20
-7.886475285297648
 30
0.0
 10
10.471176515630392
 20
-7.770327661529154
 30
0.0
 10
10.540235749849138
 20
-7.658147075431913
 30
0.0
 10
10.625608885601244
 20
-7.55766596016714
 30
0.0
 10
10.718101043058565
 20
-7.46628781309745
 30
0.0
 10
10.817034135428962
 20
-7.384170147086836
 30
0.0
 10
10.921728679118045
 20
-7.311470696231039
 30
0.0
 10
11.031506953887185
 20
-7.248344767574811
 30
0.0
 10
11.145688300571491
 20
-7.194951713247881
 30
0.0
 10
11.263595586717582
 20
-7.151446031278008
 30
0.0
 10
11.384548962177561
 20
-7.117987661580172
 30
0.0
 10
11.507869897695807
 20
-7.094731323413875
 30
0.0
 10
11.632880306480173
 20
-7.081834529643112
 30
0.0
 10
11.758900926168018
 20
-7.079456411165869
 30
0.0
 10
11.885253227503712
 20
-7.087751687241647
 30
0.0
 10
12.011257726892874
 20
-7.106878091966187
 30
0.0
 10
12.136235528526365
 20
-7.1369925504182286
 30
0.0
 10
12.259509354629039
 20
-7.178253163247022
 30
0.0
 10
12.38039810357252
 20
-7.230816488977801
 30
0.0
 10
12.893581765703685
 20
-7.554391630338574
 30
0.0
 10
13.03914794810253
 20
-7.595928032515786
 30
0.0
 10
13.186027179356094
 20
-7.585356494389188
 30
0.0
 10
13.320812169957513
 20
-7.525934540798154
 30
0.0
 10
13.4300976908974
 20
-7.420923665757055
 30
0.0
 10
13.897666719113376
 20
-6.503267778931542
 30
0.0
 10
13.918385884118248
 20
-6.3531300915725675
 30
0.0
 10
13.887234624706457
 20
-6.209159395606133
 30
0.0
 10
13.809453732708656
 20
-6.084117807196412
 30
0.0
 10
13.690288422215543
 20
-5.990766776462518
 30
0.0
 10
13.126868845579258
 20
-5.765785168663149
 30
0.0
 10
13.01336572254279
 20
-5.698840257564784
 30
0.0
 10
12.907594383541733
 20
-5.623328297929746
 30
0.0
 10
12.80982756050452
 20
-5.5398920263255444
 30
0.0
 10
12.72033608324654
 20
-5.449173561285704
 30
0.0
 10
12.639391732639709
 20
-5.351815330360741
 30
0.0
 10
12.567267858646446
 20
-5.248458168005134
 30
0.0
 10
12.504234031008625
 20
-5.139744834791926
 30
0.0
 10
12.450562030598167
 20
-5.026317758271636
 30
0.0
 10
12.406525207377484
 20
-4.908817772898741
 30
0.0
 10
12.37239534221849
 20
-4.787887306223761
 30
0.0
 10
12.348442004863065
 20
-4.6641691188197365
 30
0.0
 10
12.33493854527363
 20
-4.538304045141148
 30
0.0
 10
12.332156744322091
 20
-4.410934512738512
 30
0.0
 10
12.34036869189736
 20
-4.28270199810583
 30
0.0
 10
12.359843957741317
 20
-4.154249261816146
 30
0.0
 10
12.390857484912418
 20
-4.026218707414443
 30
0.0
 10
12.441001789755449
 20
-3.904273738166797
 30
0.0
 10
12.500729658452402
 20
-3.7887863074484747
 30
0.0
 10
12.56944486629281
 20
-3.680115759237613
 30
0.0
 10
12.646549928492696
 20
-3.57862207955187
 30
0.0
 10
12.731448287319052
 20
-3.4846624012393557
 30
0.0
 10
12.82354183995391
 20
-3.3985986124307592
 30
0.0
 10
12.922234337681264
 20
-3.320786894917675
 30
0.0
 10
13.026928628739663
 20
-3.251589445847788
 30
0.0
 10
13.137027204339587
 20
-3.1913630890522136
 30
0.0
 10
13.251933839770565
 20
-3.140467168509087
 30
0.0
 10
13.371051692288138
 20
-3.099262930309576
 30
0.0
 10
13.493783253102787
 20
-3.0681071982847987
 30
0.0
 10
13.619531037430534
 20
-3.04735995845241
 30
0.0
 10
13.747697869504387
 20
-3.037380245773555
 30
0.0
 10
13.877688475670393
 20
-3.0385277132433615
 30
0.0
 10
14.008903469031535
 20
-3.051161728845501
 30
0.0
 10
14.596960352595348
 20
-3.20031750271369
 30
0.0
 10
14.748237473075926
 20
-3.194838544500257
 30
0.0
 10
14.88466113813025
 20
-3.139396235699615
 30
0.0
 10
14.994486888241923
 20
-3.0412317468433683
 30
0.0
 10
15.065973450086629
 20
-2.907589386644129
 30
0.0
 10
15.22708675717193
 20
-1.89036
 30
0.0
 10
15.20039675717193
 20
-1.741168
 30
0.0
 10
15.12628075717193
 20
-1.61387
 30
0.0
 10
15.013666757171931
 20
-1.518984
 30
0.0
 10
14.87148675717193
 20
-1.467026
 30
0.0
 10
14.26611975717193
 20
-1.427162
 30
0.0
 10
14.137484757171931
 20
-1.398568
 30
0.0
 10
14.01355575717193
 20
-1.359437
 30
0.0
 10
13.894790757171931
 20
-1.310296
 30
0.0
 10
13.78164575717193
 20
-1.251672
 30
0.0
 10
13.67457775717193
 20
-1.184092
 30
0.0
 10
13.574044757171931
 20
-1.108081
 30
0.0
 10
13.48050175717193
 20
-1.024167
 30
0.0
 10
13.394405757171931
 20
-0.932877
 30
0.0
 10
13.316214757171931
 20
-0.834736
 30
0.0
 10
13.24638575717193
 20
-0.730271
 30
0.0
 10
13.18537375717193
 20
-0.62001
 30
0.0
 10
13.133636757171931
 20
-0.504478
 30
0.0
 10
13.09163175717193
 20
-0.384202
 30
0.0
 10
13.05981575717193
 20
-0.259708
 30
0.0
 10
13.038643757171931
 20
-0.131524
 30
0.0
 10
13.02857575717193
 20
-1.76E-4
 30
0.0
 10
13.03858275717193
 20
0.131296
 30
0.0
 10
13.05969975717193
 20
0.259588
 30
0.0
 10
13.09147075717193
 20
0.384174
 30
0.0
 10
13.13343875717193
 20
0.504527
 30
0.0
 10
13.18514675717193
 20
0.620123
 30
0.0
 10
13.24613775717193
 20
0.730433
 30
0.0
 10
13.31595475717193
 20
0.834934
 30
0.0
 10
13.39414175717193
 20
0.933097
 30
0.0
 10
13.48024075717193
 20
1.024398
 30
0.0
 10
13.573795757171931
 20
1.108311
 30
0.0
 10
13.674350757171931
 20
1.184308
 30
0.0
 10
13.78144775717193
 20
1.251865
 30
0.0
 10
13.89462975717193
 20
1.310455
 30
0.0
 10
14.01343975717193
 20
1.359552
 30
0.0
 10
14.13742275717193
 20
1.39863
 30
0.0
 10
14.26611975717193
 20
1.427162
 30
0.0
 10
14.87148675717193
 20
1.467026
 30
0.0
 10
15.013666757171931
 20
1.518984
 30
0.0
 10
15.12628075717193
 20
1.61387
 30
0.0
 10
15.20039675717193
 20
1.741168
 30
0.0
 10
15.22708675717193
 20
1.89036
 30
0.0
 10
15.065973450086629
 20
2.907589386644127
 30
0.0
 10
14.994486888241925
 20
3.041231746843366
 30
0.0
 10
14.884661138130252
 20
3.139396235699613
 30
0.0
 10
14.748237473075928
 20
3.1948385445002554
 30
0.0
 10
14.59696035259535
 20
3.2003175027136876
 30
0.0
 10
14.008903469031537
 20
3.051161728845499
 30
0.0
 10
13.877728282120755
 20
3.038605837801022
 30
0.0
 10
13.747772655105926
 20
3.0375254632442745
 30
0.0
 10
13.619635023827554
 20
3.047560928174595
 30
0.0
 10
13.4939119220131
 20
3.0683519375573276
 30
0.0
 10
13.371200834446551
 20
3.0995385053748175
 30
0.0
 10
13.252099578934416
 20
3.140762856739432
 30
0.0
 10
13.137204047164639
 20
3.1916634365430077
 30
0.0
 10
13.027111723921204
 20
3.251880258767887
 30
0.0
 10
12.922420427010618
 20
3.3210555485264384
 30
0.0
 10
12.823727641216864
 20
3.3988293198010027
 30
0.0
 10
12.731629258227889
 20
3.4848400174834184
 30
0.0
 10
12.6467230958502
 20
3.578729866686054
 30
0.0
 10
12.56960663886778
 20
3.6801388813912492
 30
0.0
 10
12.50087706304762
 20
3.788708026637866
 30
0.0
 10
12.44113026007766
 20
3.9040757473177368
 30
0.0
 10
12.39096625889444
 20
4.025883935520707
 30
0.0
 10
12.359856399168542
 20
4.154013570893772
 30
0.0
 10
12.340295451380797
 20
4.282552025352526
 30
0.0
 10
12.332012276698812
 20
4.4108581314199595
 30
0.0
 10
12.33473509425068
 20
4.538289461545559
 30
0.0
 10
12.348191196113502
 20
4.664206441348353
 30
0.0
 10
12.372109419449359
 20
4.787964741164793
 30
0.0
 10
12.406216747318362
 20
4.90892573767043
 30
0.0
 10
12.450242967939102
 20
5.026445410218704
 30
0.0
 10
12.503914422332173
 20
5.139883875411657
 30
0.0
 10
12.566959971665181
 20
5.24859996577228
 30
0.0
 10
12.639109095139728
 20
5.351950611710537
 30
0.0
 10
12.720088133776402
 20
5.449295929828462
 30
0.0
 10
12.80962530670329
 20
5.53999349257554
 30
0.0
 10
12.90744852403149
 20
5.623401823457771
 30
0.0
 10
13.013287597985128
 20
5.698880064015142
 30
0.0
 10
13.12686884557926
 20
5.765785168663148
 30
0.0
 10
13.690288422215545
 20
5.990766776462516
 30
0.0
 10
13.809453732708658
 20
6.08411780719641
 30
0.0
 10
13.887234624706458
 20
6.209159395606132
 30
0.0
 10
13.91838588411825
 20
6.353130091572567
 30
0.0
 10
13.89766671911338
 20
6.50326777893154
 30
0.0
 10
13.430097690897398
 20
7.420923665757053
 30
0.0
 10
13.320812169957513
 20
7.525934540798152
 30
0.0
 10
13.186027179356094
 20
7.5853564943891865
 30
0.0
 10
13.03914794810253
 20
7.5959280325157845
 30
0.0
 10
12.893581765703685
 20
7.554391630338572
 30
0.0
 10
12.380398103572519
 20
7.2308164889777995
 30
0.0
 10
12.259523070997048
 20
7.178339764986314
 30
0.0
 10
12.136261779193699
 20
7.137153770461845
 30
0.0
 10
12.011294520773856
 20
7.107101359093909
 30
0.0
 10
11.885299970314906
 20
7.088024209001515
 30
0.0
 10
11.758957611411242
 20
7.079764586088923
 30
0.0
 10
11.632946561103745
 20
7.082166962079638
 30
0.0
 10
11.507945272738057
 20
7.095071618290422
 30
0.0
 10
11.384633229908573
 20
7.118320820625539
 30
0.0
 10
11.263689549656165
 20
7.151759040808489
 30
0.0
 10
11.145793715575223
 20
7.195228544743538
 30
0.0
 10
11.0316241810114
 20
7.248569613747445
 30
0.0
 10
10.92186006300557
 20
7.311626719543717
 30
0.0
 10
10.81718084515212
 20
7.384242128036611
 30
0.0
 10
10.718265423260188
 20
7.46625891414739
 30
0.0
 10
10.625792250675422
 20
7.55751735919281
 30
0.0
 10
10.540442650257944
 20
7.6578623014498906
 30
0.0
 10
10.471261180631258
 20
7.770107350754045
 30
0.0
 10
10.412937046914367
 20
7.886310020169056
 30
0.0
 10
10.365410512400544
 20
8.005776736680836
 30
0.0
 10
10.328621619151315
 20
8.127812530473056
 30
0.0
 10
10.302508645872454
 20
8.25172485878036
 30
0.0
 10
10.287012810195995
 20
8.37681713375243
 30
0.0
 10
10.282071803042456
 20
8.502397621640911
 30
0.0
 10
10.287627651060863
 20
8.627770322380732
 30
0.0
 10
10.303617823939996
 20
8.752242105421288
 30
0.0
 10
10.329982584973125
 20
8.875119397748495
 30
0.0
 10
10.366663373024029
 20
8.995707008314277
 30
0.0
 10
10.413597657781478
 20
9.113311806568033
 30
0.0
 10
10.470725481307008
 20
9.227238822693428
 30
0.0
 10
10.537986297876893
 20
9.336793895891123
 30
0.0
 10
10.615321179801395
 20
9.441284040932285
 30
0.0
 10
10.70266855110806
 20
9.540013112430076
 30
0.0
 10
11.16898927064445
 20
9.928089560718377
 30
0.0
 10
11.25347516076607
 20
10.053695772883055
 30
0.0
 10
11.288809209121586
 20
10.196653007812978
 30
0.0
 10
11.273946425630353
 20
10.34320354492183
 30
0.0
 10
11.207846231850201
 20
10.479590396730304
 30
0.0
 10
10.479590396730307
 20
11.2078462318502
 30
0.0
 10
10.343203544921833
 20
11.27394642563035
 30
0.0
 10
10.196653007812982
 20
11.288809209121585
 30
0.0
 10
10.053695772883056
 20
11.253475160766069
 30
0.0
 10
9.928089560718378
 20
11.168989270644449
 30
0.0
 10
9.540013112430078
 20
10.702668551108058
 30
0.0
 10
9.44127032456428
 20
10.61540778154069
 30
0.0
 10
9.33676904202604
 20
10.538147739152253
 30
0.0
 10
9.227204822416944
 20
10.470949190898216
 30
0.0
 10
9.113272047768074
 20
10.413871285700056
 30
0.0
 10
8.995665687895766
 20
10.366973981496244
 30
0.0
 10
8.875079682367613
 20
10.33031922081275
 30
0.0
 10
8.752208634446438
 20
10.303964755768806
 30
0.0
 10
8.627747513948577
 20
10.287970544302881
 30
0.0
 10
8.502390260441626
 20
10.282398528940945
 30
0.0
 10
8.376831843741915
 20
10.28730866762147
 30
0.0
 10
8.25176686711227
 20
10.302758712463685
 30
0.0
 10
8.127889270120289
 20
10.328810605993564
 30
0.0
 10
8.0058940225823
 20
10.365524306149572
 30
0.0
 10
7.886475285297649
 20
10.412960358655438
 30
0.0
 10
7.770327661529156
 20
10.471176515630392
 30
0.0
 10
7.658147075431914
 20
10.540235749849137
 30
0.0
 10
7.557665960167141
 20
10.625608885601242
 30
0.0
 10
7.466287813097451
 20
10.718101043058564
 30
0.0
 10
7.384170147086838
 20
10.81703413542896
 30
0.0
 10
7.311470696231041
 20
10.921728679118043
 30
0.0
 10
7.248344767574813
 20
11.031506953887185
 30
0.0
 10
7.194951713247883
 20
11.14568830057149
 30
0.0
 10
7.1514460312780095
 20
11.263595586717582
 30
0.0
 10
7.117987661580173
 20
11.38454896217756
 30
0.0
 10
7.094731323413877
 20
11.507869897695805
 30
0.0
 10
7.081834529643114
 20
11.632880306480171
 30
0.0
 10
7.079456411165871
 20
11.758900926168016
 30
0.0
 10
7.087751687241648
 20
11.88525322750371
 30
0.0
 10
7.106878091966189
 20
12.011257726892872
 30
0.0
 10
7.13699255041823
 20
12.136235528526363
 30
0.0
 10
7.178253163247022
 20
12.259509354629037
 30
0.0
 10
7.230816488977801
 20
12.38039810357252
 30
0.0
 10
7.554391630338576
 20
12.893581765703686
 30
0.0
 10
7.595928032515786
 20
13.039147948102528
 30
0.0
 10
7.58535649438919
 20
13.186027179356092
 30
0.0
 10
7.525934540798156
 20
13.320812169957513
 30
0.0
 10
7.420923665757057
 20
13.4300976908974
 30
0.0
 10
6.5032677789315425
 20
13.897666719113376
 30
0.0
 10
6.353130091572568
 20
13.918385884118246
 30
0.0
 10
6.209159395606134
 20
13.887234624706457
 30
0.0
 10
6.084117807196413
 20
13.809453732708656
 30
0.0
 10
5.990766776462518
 20
13.690288422215543
 30
0.0
 10
5.76578516866315
 20
13.126868845579258
 30
0.0
 10
5.698840257564785
 20
13.01336572254279
 30
0.0
 10
5.623328297929746
 20
12.907594383541733
 30
0.0
 10
5.539892026325545
 20
12.80982756050452
 30
0.0
 10
5.449173561285705
 20
12.72033608324654
 30
0.0
 10
5.351815330360742
 20
12.639391732639709
 30
0.0
 10
5.2484581680051345
 20
12.567267858646444
 30
0.0
 10
5.139744834791927
 20
12.504234031008625
 30
0.0
 10
5.026317758271637
 20
12.450562030598167
 30
0.0
 10
4.908817772898743
 20
12.406525207377484
 30
0.0
 10
4.7878873062237615
 20
12.37239534221849
 30
0.0
 10
4.664169118819737
 20
12.348442004863065
 30
0.0
 10
4.538304045141149
 20
12.33493854527363
 30
0.0
 10
4.410934512738513
 20
12.332156744322091
 30
0.0
 10
4.282701998105831
 20
12.34036869189736
 30
0.0
 10
4.154249261816147
 20
12.359843957741317
 30
0.0
 10
4.0262187074144435
 20
12.390857484912418
 30
0.0
 10
3.904273738166798
 20
12.441001789755449
 30
0.0
 10
3.7887863074484756
 20
12.500729658452402
 30
0.0
 10
3.680115759237614
 20
12.569444866292812
 30
0.0
 10
3.578622079551871
 20
12.646549928492696
 30
0.0
 10
3.4846624012393566
 20
12.731448287319052
 30
0.0
 10
3.39859861243076
 20
12.82354183995391
 30
0.0
 10
3.320786894917676
 20
12.922234337681264
 30
0.0
 10
3.251589445847789
 20
13.026928628739663
 30
0.0
 10
3.1913630890522136
 20
13.137027204339587
 30
0.0
 10
3.1404671685090877
 20
13.251933839770565
 30
0.0
 10
3.099262930309577
 20
13.371051692288138
 30
0.0
 10
3.0681071982847987
 20
13.493783253102787
 30
0.0
 10
3.047359958452411
 20
13.619531037430534
 30
0.0
 10
3.037380245773555
 20
13.747697869504387
 30
0.0
 10
3.0385277132433623
 20
13.877688475670393
 30
0.0
 10
3.0511617288455017
 20
14.008903469031535
 30
0.0
 10
3.2003175027136908
 20
14.596960352595348
 30
0.0
 10
3.194838544500258
 20
14.748237473075926
 30
0.0
 10
3.139396235699616
 20
14.88466113813025
 30
0.0
 10
3.041231746843369
 20
14.994486888241925
 30
0.0
 10
2.90758938664413
 20
15.065973450086629
 30
0.0
 10
1.89036
 20
15.22708675717193
 30
0.0
 10
1.741168
 20
15.20039675717193
 30
0.0
 10
1.61387
 20
15.12628075717193
 30
0.0
 10
1.518984
 20
15.013666757171931
 30
0.0
 10
1.467026
 20
14.87148675717193
 30
0.0
 10
1.427162
 20
14.26611975717193
 30
0.0
 10
1.398568
 20
14.137484757171931
 30
0.0
 10
1.359437
 20
14.01355575717193
 30
0.0
 10
1.310296
 20
13.894790757171931
 30
0.0
 10
1.251672
 20
13.78164575717193
 30
0.0
 10
1.184092
 20
13.67457775717193
 30
0.0
 10
1.108081
 20
13.574044757171931
 30
0.0
 10
1.024167
 20
13.48050175717193
 30
0.0
 10
0.932877
 20
13.394405757171931
 30
0.0
 10
0.834736
 20
13.316214757171931
 30
0.0
 10
0.730271
 20
13.24638575717193
 30
0.0
 10
0.62001
 20
13.18537375717193
 30
0.0
 10
0.504478
 20
13.133636757171931
 30
0.0
 10
0.384202
 20
13.09163175717193
 30
0.0
 10
0.259708
 20
13.05981575717193
 30
0.0
 10
0.131524
 20
13.038643757171931
 30
0.0
 10
1.76E-4
 20
13.02857575717193
 30
0.0
 10
-0.131296
 20
13.03858275717193
 30
0.0
 10
-0.259588
 20
13.05969975717193
 30
0.0
 10
-0.384174
 20
13.09147075717193
 30
0.0
 10
-0.504527
 20
13.13343875717193
 30
0.0
 10
-0.620123
 20
13.18514675717193
 30
0.0
 10
-0.730433
 20
13.24613775717193
 30
0.0
 10
-0.834934
 20
13.31595475717193
 30
0.0
 10
-0.933097
 20
13.39414175717193
 30
0.0
 10
-1.024398
 20
13.48024075717193
 30
0.0
 10
-1.108311
 20
13.573795757171931
 30
0.0
 10
-1.184308
 20
13.674350757171931
 30
0.0
 10
-1.251865
 20
13.78144775717193
 30
0.0
 10
-1.310455
 20
13.89462975717193
 30
0.0
 10
-1.359552
 20
14.01343975717193
 30
0.0
 10
-1.39863
 20
14.13742275717193
 30
0.0
 10
-1.427162
 20
14.26611975717193
 30
0.0
 10
-1.467026
 20
14.87148675717193
 30
0.0
 10
-1.518984
 20
15.013666757171931
 30
0.0
 10
-1.61387
 20
15.12628075717193
 30
0.0
 10
-1.741168
 20
15.20039675717193
 30
0.0
 10
-1.89036
 20
15.22708675717193
 30
0.0
 10
-2.9075893866441263
 20
15.065973450086629
 30
0.0
 10
-3.041231746843365
 20
14.994486888241925
 30
0.0
 10
-3.139396235699612
 20
14.884661138130252
 30
0.0
 10
-3.1948385445002545
 20
14.748237473075928
 30
0.0
 10
-3.2003175027136868
 20
14.59696035259535
 30
0.0
 10
-3.051161728845498
 20
14.008903469031537
 30
0.0
 10
-3.038605837801021
 20
13.877728282120755
 30
0.0
 10
-3.0375254632442736
 20
13.747772655105926
 30
0.0
 10
-3.047560928174594
 20
13.619635023827554
 30
0.0
 10
-3.0683519375573267
 20
13.4939119220131
 30
0.0
 10
-3.0995385053748166
 20
13.371200834446551
 30
0.0
 10
-3.140762856739431
 20
13.252099578934416
 30
0.0
 10
-3.1916634365430068
 20
13.137204047164639
 30
0.0
 10
-3.251880258767886
 20
13.027111723921204
 30
0.0
 10
-3.3210555485264375
 20
12.922420427010618
 30
0.0
 10
-3.3988293198010027
 20
12.823727641216864
 30
0.0
 10
-3.4848400174834175
 20
12.731629258227889
 30
0.0
 10
-3.578729866686053
 20
12.6467230958502
 30
0.0
 10
-3.6801388813912492
 20
12.56960663886778
 30
0.0
 10
-3.788708026637865
 20
12.50087706304762
 30
0.0
 10
-3.904075747317736
 20
12.44113026007766
 30
0.0
 10
-4.025883935520706
 20
12.39096625889444
 30
0.0
 10
-4.154013570893771
 20
12.359856399168542
 30
0.0
 10
-4.282552025352525
 20
12.340295451380797
 30
0.0
 10
-4.4108581314199595
 20
12.332012276698812
 30
0.0
 10
-4.538289461545558
 20
12.33473509425068
 30
0.0
 10
-4.664206441348352
 20
12.348191196113502
 30
0.0
 10
-4.787964741164793
 20
12.372109419449359
 30
0.0
 10
-4.908925737670429
 20
12.406216747318362
 30
0.0
 10
-5.026445410218704
 20
12.450242967939102
 30
0.0
 10
-5.139883875411656
 20
12.503914422332173
 30
0.0
 10
-5.24859996577228
 20
12.566959971665181
 30
0.0
 10
-5.351950611710535
 20
12.639109095139728
 30
0.0
 10
-5.449295929828461
 20
12.720088133776402
 30
0.0
 10
-5.539993492575539
 20
12.80962530670329
 30
0.0
 10
-5.62340182345777
 20
12.90744852403149
 30
0.0
 10
-5.698880064015141
 20
13.013287597985128
 30
0.0
 10
-5.765785168663147
 20
13.12686884557926
 30
0.0
 10
-5.990766776462515
 20
13.690288422215545
 30
0.0
 10
-6.084117807196409
 20
13.809453732708658
 30
0.0
 10
-6.209159395606131
 20
13.887234624706458
 30
0.0
 10
-6.353130091572565
 20
13.91838588411825
 30
0.0
 10
-6.503267778931539
 20
13.89766671911338
 30
0.0
 10
-7.420923665757052
 20
13.430097690897401
 30
0.0
 10
-7.525934540798152
 20
13.320812169957515
 30
0.0
 10
-7.585356494389186
 20
13.186027179356094
 30
0.0
 10
-7.5959280325157845
 20
13.039147948102531
 30
0.0
 10
-7.554391630338572
 20
12.893581765703686
 30
0.0
 10
-7.230816488977799
 20
12.38039810357252
 30
0.0
 10
-7.178339764986314
 20
12.25952307099705
 30
0.0
 10
-7.137153770461845
 20
12.1362617791937
 30
0.0
 10
-7.107101359093909
 20
12.011294520773856
 30
0.0
 10
-7.088024209001515
 20
11.885299970314907
 30
0.0
 10
-7.079764586088923
 20
11.758957611411244
 30
0.0
 10
-7.082166962079638
 20
11.632946561103747
 30
0.0
 10
-7.095071618290422
 20
11.50794527273806
 30
0.0
 10
-7.118320820625539
 20
11.384633229908575
 30
0.0
 10
-7.151759040808489
 20
11.263689549656167
 30
0.0
 10
-7.195228544743537
 20
11.145793715575225
 30
0.0
 10
-7.248569613747445
 20
11.031624181011402
 30
0.0
 10
-7.311626719543717
 20
10.921860063005571
 30
0.0
 10
-7.384242128036611
 20
10.817180845152121
 30
0.0
 10
-7.46625891414739
 20
10.71826542326019
 30
0.0
 10
-7.55751735919281
 20
10.625792250675424
 30
0.0
 10
-7.6578623014498906
 20
10.540442650257944
 30
0.0
 10
-7.770107350754045
 20
10.47126118063126
 30
0.0
 10
-7.886310020169056
 20
10.412937046914369
 30
0.0
 10
-8.005776736680836
 20
10.365410512400544
 30
0.0
 10
-8.127812530473056
 20
10.328621619151317
 30
0.0
 10
-8.25172485878036
 20
10.302508645872456
 30
0.0
 10
-8.376817133752432
 20
10.287012810195995
 30
0.0
 10
-8.502397621640911
 20
10.282071803042456
 30
0.0
 10
-8.627770322380732
 20
10.287627651060864
 30
0.0
 10
-8.752242105421288
 20
10.303617823939998
 30
0.0
 10
-8.875119397748497
 20
10.329982584973127
 30
0.0
 10
-8.995707008314278
 20
10.36666337302403
 30
0.0
 10
-9.113311806568035
 20
10.41359765778148
 30
0.0
 10
-9.22723882269343
 20
10.47072548130701
 30
0.0
 10
-9.336793895891125
 20
10.537986297876895
 30
0.0
 10
-9.441284040932286
 20
10.615321179801397
 30
0.0
 10
-9.540013112430076
 20
10.702668551108061
 30
0.0
 10
-9.928089560718377
 20
11.168989270644452
 30
0.0
 10
-10.053695772883055
 20
11.253475160766072
 30
0.0
 10
-10.196653007812978
 20
11.288809209121586
 30
0.0
 10
-10.34320354492183
 20
11.273946425630355
 30
0.0
 10
-10.479590396730304
 20
11.207846231850201
 30
0.0
 10
-11.2078462318502
 20
10.479590396730307
 30
0.0
 10
-11.27394642563035
 20
10.343203544921833
 30
0.0
 10
-11.288809209121585
 20
10.196653007812982
 30
0.0
 10
-11.253475160766069
 20
10.053695772883056
 30
0.0
 10
-11.168989270644449
 20
9.928089560718378
 30
0.0
 10
-10.702668551108058
 20
9.540013112430078
 30
0.0
 10
-10.61540778154069
 20
9.44127032456428
 30
0.0
 10
-10.538147739152253
 20
9.33676904202604
 30
0.0
 10
-10.470949190898216
 20
9.227204822416944
 30
0.0
 10
-10.413871285700056
 20
9.113272047768074
 30
0.0
 10
-10.366973981496244
 20
8.995665687895766
 30
0.0
 10
-10.33031922081275
 20
8.875079682367613
 30
0.0
 10
-10.303964755768806
 20
8.752208634446438
 30
0.0
 10
-10.287970544302881
 20
8.627747513948577
 30
0.0
 10
-10.282398528940945
 20
8.502390260441626
 30
0.0
 10
-10.28730866762147
 20
8.376831843741915
 30
0.0
 10
-10.302758712463685
 20
8.25176686711227
 30
0.0
 10
-10.328810605993564
 20
8.127889270120289
 30
0.0
 10
-10.365524306149572
 20
8.0058940225823
 30
0.0
 10
-10.412960358655438
 20
7.886475285297649
 30
0.0
 10
-10.471176515630392
 20
7.770327661529156
 30
0.0
 10
-10.540235749849137
 20
7.658147075431914
 30
0.0
 10
-10.625608885601242
 20
7.557665960167141
 30
0.0
 10
-10.718101043058564
 20
7.466287813097451
 30
0.0
 10
-10.81703413542896
 20
7.384170147086838
 30
0.0
 10
-10.921728679118043
 20
7.311470696231041
 30
0.0
 10
-11.031506953887185
 20
7.248344767574813
 30
0.0
 10
-11.14568830057149
 20
7.194951713247883
 30
0.0
 10
-11.263595586717582
 20
7.1514460312780095
 30
0.0
 10
-11.38454896217756
 20
7.117987661580173
 30
0.0
 10
-11.507869897695805
 20
7.094731323413877
 30
0.0
 10
-11.632880306480171
 20
7.081834529643114
 30
0.0
 10
-11.758900926168016
 20
7.079456411165871
 30
0.0
 10
-11.88525322750371
 20
7.087751687241648
 30
0.0
 10
-12.011257726892872
 20
7.106878091966189
 30
0.0
 10
-12.136235528526363
 20
7.13699255041823
 30
0.0
 10
-12.259509354629037
 20
7.178253163247022
 30
0.0
 10
-12.38039810357252
 20
7.230816488977801
 30
0.0
 10
-12.893581765703686
 20
7.554391630338576
 30
0.0
 10
-13.039147948102528
 20
7.595928032515786
 30
0.0
 10
-13.186027179356092
 20
7.58535649438919
 30
0.0
 10
-13.320812169957513
 20
7.525934540798156
 30
0.0
 10
-13.4300976908974
 20
7.420923665757057
 30
0.0
 10
-13.897666719113376
 20
6.503267778931543
 30
0.0
 10
-13.918385884118246
 20
6.353130091572569
 30
0.0
 10
-13.887234624706457
 20
6.209159395606135
 30
0.0
 10
-13.809453732708656
 20
6.084117807196413
 30
0.0
 10
-13.690288422215543
 20
5.99076677646252
 30
0.0
 10
-13.126868845579258
 20
5.765785168663151
 30
0.0
 10
-13.01336572254279
 20
5.698840257564786
 30
0.0
 10
-12.907594383541733
 20
5.623328297929747
 30
0.0
 10
-12.80982756050452
 20
5.539892026325546
 30
0.0
 10
-12.72033608324654
 20
5.449173561285706
 30
0.0
 10
-12.639391732639709
 20
5.351815330360742
 30
0.0
 10
-12.567267858646444
 20
5.248458168005135
 30
0.0
 10
-12.504234031008625
 20
5.1397448347919275
 30
0.0
 10
-12.450562030598167
 20
5.026317758271638
 30
0.0
 10
-12.406525207377484
 20
4.908817772898743
 30
0.0
 10
-12.37239534221849
 20
4.787887306223762
 30
0.0
 10
-12.348442004863065
 20
4.664169118819738
 30
0.0
 10
-12.33493854527363
 20
4.53830404514115
 30
0.0
 10
-12.332156744322091
 20
4.410934512738514
 30
0.0
 10
-12.34036869189736
 20
4.282701998105832
 30
0.0
 10
-12.359843957741317
 20
4.1542492618161475
 30
0.0
 10
-12.390857484912418
 20
4.026218707414444
 30
0.0
 10
-12.441001789755449
 20
3.904273738166798
 30
0.0
 10
-12.500729658452402
 20
3.7887863074484764
 30
0.0
 10
-12.569444866292812
 20
3.680115759237615
 30
0.0
 10
-12.646549928492696
 20
3.578622079551872
 30
0.0
 10
-12.731448287319052
 20
3.4846624012393574
 30
0.0
 10
-12.82354183995391
 20
3.398598612430761
 30
0.0
 10
-12.922234337681264
 20
3.320786894917677
 30
0.0
 10
-13.026928628739663
 20
3.25158944584779
 30
0.0
 10
-13.137027204339587
 20
3.1913630890522144
 30
0.0
 10
-13.251933839770565
 20
3.1404671685090877
 30
0.0
 10
-13.371051692288138
 20
3.099262930309578
 30
0.0
 10
-13.493783253102787
 20
3.0681071982847996
 30
0.0
 10
-13.619531037430534
 20
3.047359958452412
 30
0.0
 10
-13.747697869504387
 20
3.037380245773556
 30
0.0
 10
-13.877688475670393
 20
3.0385277132433632
 30
0.0
 10
-14.008903469031535
 20
3.0511617288455026
 30
0.0
 10
-14.596960352595348
 20
3.2003175027136916
 30
0.0
 10
-14.748237473075926
 20
3.194838544500258
 30
0.0
 10
-14.88466113813025
 20
3.139396235699617
 30
0.0
 10
-14.994486888241925
 20
3.04123174684337
 30
0.0
 10
-15.065973450086629
 20
2.9075893866441307
 30
0.0
 10
-15.22708675717193
 20
1.89036
 30
0.0
 10
-15.20039675717193
 20
1.741168
 30
0.0
 10
-15.12628075717193
 20
1.61387
 30
0.0
 10
-15.013666757171931
 20
1.518984
 30
0.0
 10
-14.87148675717193
 20
1.467026
 30
0.0
 10
-14.26611975717193
 20
1.427162
 30
0.0
 10
-14.137484757171931
 20
1.398568
 30
0.0
 10
-14.01355575717193
 20
1.359437
 30
0.0
 10
-13.894790757171931
 20
1.310296
 30
0.0
 10
-13.78164575717193
 20
1.251672
 30
0.0
 10
-13.67457775717193
 20
1.184092
 30
0.0
 10
-13.574044757171931
 20
1.108081
 30
0.0
 10
-13.48050175717193
 20
1.024167
 30
0.0
 10
-13.394405757171931
 20
0.932877
 30
0.0
 10
-13.316214757171931
 20
0.834736
 30
0.0
 10
-13.24638575717193
 20
0.730271
 30
0.0
 10
-13.18537375717193
 20
0.62001
 30
0.0
 10
-13.133636757171931
 20
0.504478
 30
0.0
 10
-13.09163175717193
 20
0.384202
 30
0.0
 10
-13.05981575717193
 20
0.259708
 30
0.0
 10
-13.038643757171931
 20
0.131524
 30
0.0
 10
-13.02857575717193
 20
1.76E-4
 30
0.0
 10
-13.03858275717193
 20
-0.131296
 30
0.0
 10
-13.05969975717193
 20
-0.259588
 30
0.0
 10
-13.09147075717193
 20
-0.384174
 30
0.0
 10
-13.13343875717193
 20
-0.504527
 30
0.0
 10
-13.18514675717193
 20
-0.620123
 30
0.0
 10
-13.24613775717193
 20
-0.730433
 30
0.0
 10
-13.31595475717193
 20
-0.834934
 30
0.0
 10
-13.39414175717193
 20
-0.933097
 30
0.0
 10
-13.48024075717193
 20
-1.024398
 30
0.0
 10
-13.573795757171931
 20
-1.108311
 30
0.0
 10
-13.674350757171931
 20
-1.184308
 30
0.0
 10
-13.78144775717193
 20
-1.251865
 30
0.0
 10
-13.89462975717193
 20
-1.310455
 30
0.0
 10
-14.01343975717193
 20
-1.359552
 30
0.0
 10
-14.13742275717193
 20
-1.39863
 30
0.0
 10
-14.26611975717193
 20
-1.427162
 30
0.0
 10
-14.87148675717193
 20
-1.467026
 30
0.0
 10
-15.013666757171931
 20
-1.518984
 30
0.0
 10
-15.12628075717193
 20
-1.61387
 30
0.0
 10
-15.20039675717193
 20
-1.741168
 30
0.0
 10
-15.22708675717193
 20
-1.89036
 30
0.0
 10
-15.065973450086629
 20
-2.9075893866441254
 30
0.0
 10
-14.994486888241925
 20
-3.0412317468433643
 30
0.0
 10
-14.884661138130252
 20
-3.139396235699611
 30
0.0
 10
-14.748237473075928
 20
-3.1948385445002536
 30
0.0
 10
-14.596960352595348
 20
-3.200317502713686
 30
0.0
 10
-14.008903469031537
 20
-3.0511617288454973
 30
0.0
 10
-13.877728282120755
 20
-3.03860583780102
 30
0.0
 10
-13.747772655105926
 20
-3.0375254632442727
 30
0.0
 10
-13.619635023827554
 20
-3.047560928174593
 30
0.0
 10
-13.4939119220131
 20
-3.068351937557326
 30
0.0
 10
-13.371200834446551
 20
-3.0995385053748157
 30
0.0
 10
-13.252099578934416
 20
-3.14076285673943
 30
0.0
 10
-13.137204047164639
 20
-3.191663436543006
 30
0.0
 10
-13.027111723921204
 20
-3.251880258767886
 30
0.0
 10
-12.922420427010618
 20
-3.3210555485264366
 30
0.0
 10
-12.823727641216864
 20
-3.398829319801002
 30
0.0
 10
-12.731629258227889
 20
-3.4848400174834175
 30
0.0
 10
-12.6467230958502
 20
-3.5787298666860523
 30
0.0
 10
-12.56960663886778
 20
-3.6801388813912483
 30
0.0
 10
-12.50087706304762
 20
-3.788708026637864
 30
0.0
 10
-12.44113026007766
 20
-3.904075747317736
 30
0.0
 10
-12.39096625889444
 20
-4.025883935520705
 30
0.0
 10
-12.359856399168542
 20
-4.154013570893771
 30
0.0
 10
-12.340295451380797
 20
-4.282552025352524
 30
0.0
 10
-12.332012276698812
 20
-4.410858131419959
 30
0.0
 10
-12.33473509425068
 20
-4.538289461545557
 30
0.0
 10
-12.348191196113502
 20
-4.664206441348352
 30
0.0
 10
-12.372109419449359
 20
-4.787964741164792
 30
0.0
 10
-12.406216747318362
 20
-4.908925737670428
 30
0.0
 10
-12.450242967939102
 20
-5.026445410218703
 30
0.0
 10
-12.503914422332173
 20
-5.139883875411655
 30
0.0
 10
-12.566959971665181
 20
-5.248599965772279
 30
0.0
 10
-12.639109095139728
 20
-5.351950611710535
 30
0.0
 10
-12.720088133776402
 20
-5.44929592982846
 30
0.0
 10
-12.80962530670329
 20
-5.5399934925755385
 30
0.0
 10
-12.90744852403149
 20
-5.623401823457769
 30
0.0
 10
-13.013287597985128
 20
-5.69888006401514
 30
0.0
 10
-13.12686884557926
 20
-5.765785168663146
 30
0.0
 10
-13.690288422215547
 20
-5.9907667764625145
 30
0.0
 10
-13.809453732708658
 20
-6.084117807196408
 30
0.0
 10
-13.887234624706458
 20
-6.209159395606131
 30
0.0
 10
-13.91838588411825
 20
-6.353130091572565
 30
0.0
 10
-13.89766671911338
 20
-6.503267778931538
 30
0.0
 10
-13.430097690897401
 20
-7.4209236657570505
 30
0.0
 10
-13.320812169957515
 20
-7.525934540798152
 30
0.0
 10
-13.186027179356094
 20
-7.585356494389184
 30
0.0
 10
-13.039147948102531
 20
-7.595928032515783
 30
0.0
 10
-12.893581765703686
 20
-7.5543916303385705
 30
0.0
 10
-12.38039810357252
 20
-7.230816488977797
 30
0.0
 10
-12.25952307099705
 20
-7.178339764986312
 30
0.0
 10
-12.1362617791937
 20
-7.137153770461843
 30
0.0
 10
-12.011294520773856
 20
-7.107101359093908
 30
0.0
 10
-11.885299970314907
 20
-7.088024209001513
 30
0.0
 10
-11.758957611411244
 20
-7.079764586088921
 30
0.0
 10
-11.632946561103747
 20
-7.082166962079636
 30
0.0
 10
-11.50794527273806
 20
-7.0950716182904205
 30
0.0
 10
-11.384633229908575
 20
-7.118320820625537
 30
0.0
 10
-11.263689549656167
 20
-7.151759040808488
 30
0.0
 10
-11.145793715575225
 20
-7.195228544743536
 30
0.0
 10
-11.031624181011402
 20
-7.248569613747444
 30
0.0
 10
-10.921860063005571
 20
-7.311626719543715
 30
0.0
 10
-10.817180845152121
 20
-7.38424212803661
 30
0.0
 10
-10.71826542326019
 20
-7.466258914147388
 30
0.0
 10
-10.625792250675424
 20
-7.5575173591928095
 30
0.0
 10
-10.540442650257944
 20
-7.65786230144989
 30
0.0
 10
-10.47126118063126
 20
-7.770107350754044
 30
0.0
 10
-10.412937046914369
 20
-7.886310020169054
 30
0.0
 10
-10.365410512400544
 20
-8.005776736680836
 30
0.0
 10
-10.328621619151317
 20
-8.127812530473054
 30
0.0
 10
-10.302508645872456
 20
-8.25172485878036
 30
0.0
 10
-10.287012810195995
 20
-8.37681713375243
 30
0.0
 10
-10.282071803042456
 20
-8.50239762164091
 30
0.0
 10
-10.287627651060864
 20
-8.62777032238073
 30
0.0
 10
-10.303617823939998
 20
-8.752242105421287
 30
0.0
 10
-10.329982584973127
 20
-8.875119397748495
 30
0.0
 10
-10.36666337302403
 20
-8.995707008314277
 30
0.0
 10
-10.41359765778148
 20
-9.113311806568031
 30
0.0
 10
-10.47072548130701
 20
-9.227238822693426
 30
0.0
 10
-10.537986297876895
 20
-9.336793895891123
 30
0.0
 10
-10.615321179801397
 20
-9.441284040932285
 30
0.0
 10
-10.702668551108061
 20
-9.540013112430074
 30
0.0
 10
-11.168989270644452
 20
-9.928089560718373
 30
0.0
 10
-11.253475160766072
 20
-10.053695772883053
 30
0.0
 10
-11.288809209121586
 20
-10.196653007812976
 30
0.0
 10
-11.273946425630355
 20
-10.34320354492183
 30
0.0
 10
-11.207846231850201
 20
-10.479590396730302
 30
0.0
 10
-10.479590396730309
 20
-11.2078462318502
 30
0.0
 10
-10.343203544921835
 20
-11.27394642563035
 30
0.0
 10
-10.196653007812984
 20
-11.288809209121585
 30
0.0
 10
-10.053695772883058
 20
-11.253475160766069
 30
0.0
 10
-9.92808956071838
 20
-11.168989270644449
 30
0.0
 10
-9.54001311243008
 20
-10.702668551108058
 30
0.0
 10
-9.441270324564282
 20
-10.61540778154069
 30
0.0
 10
-9.336769042026042
 20
-10.538147739152253
 30
0.0
 10
-9.227204822416947
 20
-10.470949190898216
 30
0.0
 10
-9.113272047768076
 20
-10.413871285700056
 30
0.0
 10
-8.995665687895766
 20
-10.366973981496244
 30
0.0
 10
-8.875079682367614
 20
-10.33031922081275
 30
0.0
 10
-8.75220863444644
 20
-10.303964755768805
 30
0.0
 10
-8.627747513948579
 20
-10.287970544302881
 30
0.0
 10
-8.502390260441626
 20
-10.282398528940945
 30
0.0
 10
-8.376831843741916
 20
-10.28730866762147
 30
0.0
 10
-8.251766867112272
 20
-10.302758712463685
 30
0.0
 10
-8.12788927012029
 20
-10.328810605993564
 30
0.0
 10
-8.005894022582302
 20
-10.365524306149572
 30
0.0
 10
-7.886475285297651
 20
-10.412960358655438
 30
0.0
 10
-7.770327661529157
 20
-10.471176515630392
 30
0.0
 10
-7.658147075431915
 20
-10.540235749849137
 30
0.0
 10
-7.557665960167142
 20
-10.625608885601242
 30
0.0
 10
-7.466287813097453
 20
-10.718101043058564
 30
0.0
 10
-7.384170147086839
 20
-10.81703413542896
 30
0.0
 10
-7.3114706962310425
 20
-10.921728679118043
 30
0.0
 10
-7.248344767574814
 20
-11.031506953887185
 30
0.0
 10
-7.1949517132478835
 20
-11.14568830057149
 30
0.0
 10
-7.151446031278011
 20
-11.263595586717582
 30
0.0
 10
-7.117987661580175
 20
-11.38454896217756
 30
0.0
 10
-7.094731323413878
 20
-11.507869897695805
 30
0.0
 10
-7.081834529643116
 20
-11.632880306480171
 30
0.0
 10
-7.079456411165872
 20
-11.758900926168016
 30
0.0
 10
-7.08775168724165
 20
-11.88525322750371
 30
0.0
 10
-7.106878091966189
 20
-12.011257726892872
 30
0.0
 10
-7.13699255041823
 20
-12.136235528526363
 30
0.0
 10
-7.178253163247024
 20
-12.259509354629037
 30
0.0
 10
-7.230816488977803
 20
-12.38039810357252
 30
0.0
 10
-7.554391630338578
 20
-12.893581765703686
 30
0.0
 10
-7.595928032515788
 20
-13.039147948102528
 30
0.0
 10
-7.585356494389192
 20
-13.186027179356092
 30
0.0
 10
-7.525934540798158
 20
-13.320812169957513
 30
0.0
 10
-7.4209236657570585
 20
-13.4300976908974
 30
0.0
 10
-6.503267778931544
 20
-13.897666719113376
 30
0.0
 10
-6.35313009157257
 20
-13.918385884118246
 30
0.0
 10
-6.209159395606136
 20
-13.887234624706457
 30
0.0
 10
-6.084117807196414
 20
-13.809453732708656
 30
0.0
 10
-5.99076677646252
 20
-13.690288422215543
 30
0.0
 10
-5.765785168663152
 20
-13.126868845579258
 30
0.0
 10
-5.698840257564787
 20
-13.01336572254279
 30
0.0
 10
-5.623328297929747
 20
-12.907594383541733
 30
0.0
 10
-5.539892026325547
 20
-12.80982756050452
 30
0.0
 10
-5.449173561285706
 20
-12.72033608324654
 30
0.0
 10
-5.3518153303607425
 20
-12.639391732639709
 30
0.0
 10
-5.248458168005136
 20
-12.567267858646444
 30
0.0
 10
-5.139744834791928
 20
-12.504234031008625
 30
0.0
 10
-5.026317758271638
 20
-12.450562030598167
 30
0.0
 10
-4.908817772898745
 20
-12.406525207377484
 30
0.0
 10
-4.787887306223762
 20
-12.37239534221849
 30
0.0
 10
-4.664169118819738
 20
-12.348442004863065
 30
0.0
 10
-4.5383040451411505
 20
-12.33493854527363
 30
0.0
 10
-4.410934512738515
 20
-12.332156744322091
 30
0.0
 10
-4.282701998105833
 20
-12.34036869189736
 30
0.0
 10
-4.1542492618161475
 20
-12.359843957741317
 30
0.0
 10
-4.026218707414445
 20
-12.390857484912418
 30
0.0
 10
-3.9042737381667987
 20
-12.441001789755449
 30
0.0
 10
-3.7887863074484773
 20
-12.500729658452402
 30
0.0
 10
-3.6801157592376157
 20
-12.569444866292812
 30
0.0
 10
-3.578622079551873
 20
-12.646549928492696
 30
0.0
 10
-3.4846624012393574
 20
-12.731448287319052
 30
0.0
 10
-3.398598612430762
 20
-12.82354183995391
 30
0.0
 10
-3.3207868949176778
 20
-12.922234337681264
 30
0.0
 10
-3.2515894458477907
 20
-13.026928628739663
 30
0.0
 10
-3.1913630890522153
 20
-13.137027204339587
 30
0.0
 10
-3.1404671685090886
 20
-13.251933839770565
 30
0.0
 10
-3.0992629303095787
 20
-13.371051692288138
 30
0.0
 10
-3.0681071982848005
 20
-13.493783253102787
 30
0.0
 10
-3.0473599584524127
 20
-13.619531037430534
 30
0.0
 10
-3.037380245773557
 20
-13.747697869504387
 30
0.0
 10
-3.038527713243364
 20
-13.877688475670393
 30
0.0
 10
-3.0511617288455035
 20
-14.008903469031535
 30
0.0
 10
-3.2003175027136925
 20
-14.596960352595348
 30
0.0
 10
-3.194838544500259
 20
-14.748237473075926
 30
0.0
 10
-3.1393962356996177
 20
-14.88466113813025
 30
0.0
 10
-3.041231746843371
 20
-14.994486888241925
 30
0.0
 10
-2.9075893866441316
 20
-15.065973450086629
 30
0.0
  0
ENDSEC
  0
SECTION
  2
OBJECTS
  0
DICTIONARY
  5
C
330
0
100
AcDbDictionary
  3
ACAD_GROUP
350
D
  3
ACAD_MLINESTYLE
350
17
  0
DICTIONARY
  5
D
330
C
100
AcDbDictionary
  0
DICTIONARY
  5
1A
330
C
100
AcDbDictionary
  0
DICTIONARY
  5
17
330
C
100
AcDbDictionary
  3
STANDARD
350
18
  0
DICTIONARY
  5
19
330
C
100
AcDbDictionary
  0
ENDSEC
  0
EOF