0
SECTION
2
HEADER
9
$ACADVER
1
AC1009
9
$INSUNITS
70
4
0
ENDSEC
0
SECTION
2
ENTITIES
0
ARC
8
PITCH_LINE_260MM
10
0.0
20
0.0
30
0.0
40
15.9154943092
50
167.8129906636
51
360.0
0
LINE
8
PITCH_LINE_260MM
10
15.9154943092
20
0.0
30
0.0
11
15.9154943092
21
79.0
31
0.0
0
ARC
8
PITCH_LINE_260MM
10
0.0
20
79.0
30
0.0
40
15.9154943092
50
0.0
51
194.9437989555
0
LINE
8
PITCH_LINE_260MM
10
-15.3772201230
20
74.8958483954
30
0.0
11
-7.6213567348
21
45.8365859566
31
0.0
0
ARC
8
PITCH_LINE_260MM
10
-18.2493283245
20
43.0
30
0.0
40
11.0
50
347.8129906636
51
360.0
0
ARC
8
PITCH_LINE_260MM
10
-18.2493283245
20
43.0
30
0.0
40
11.0
50
0.0
51
14.9437989555
0
LINE
8
PITCH_LINE_260MM
10
-7.4972267136
20
40.6778650017
30
0.0
11
-15.5568192726
21
3.3598114864
31
0.0
0
ENDSEC
0
EOF
