0
SECTION
2
HEADER
9
$ACADVER
1
AC1009
9
$INSUNITS
70
4
0
ENDSEC
0
SECTION
2
ENTITIES
0
ARC
8
BELT
10
0.0
20
0.0
30
0.0
40
16.4154943092
50
160.0117511334
51
360.0
0
LINE
8
BELT
10
16.4154943092
20
0.0
30
0.0
11
16.4154943092
21
79.0
31
0.0
0
ARC
8
BELT
10
0.0
20
79.0
30
0.0
40
16.4154943092
50
0.0
51
204.8297046599
0
LINE
8
BELT
10
-14.8980442765
20
72.1067619981
30
0.0
11
-3.4706211122
21
47.4091879085
31
0.0
0
ARC
8
BELT
10
-13.0
20
43.0
30
0.0
40
10.5
50
340.0117511334
51
360.0
0
ARC
8
BELT
10
-13.0
20
43.0
30
0.0
40
10.5
50
0.0
51
24.8297046599
0
LINE
8
BELT
10
-3.1324911463
20
39.4108122059
30
0.0
11
-15.4266700414
21
5.6112658866
31
0.0
0
ARC
8
BELT
10
0.0
20
0.0
30
0.0
40
15.4154943092
50
160.0117511334
51
360.0
0
LINE
8
BELT
10
15.4154943092
20
0.0
30
0.0
11
15.4154943092
21
79.0
31
0.0
0
ARC
8
BELT
10
0.0
20
79.0
30
0.0
40
15.4154943092
50
0.0
51
204.8297046599
0
LINE
8
BELT
10
-13.9904843824
20
72.5266846561
30
0.0
11
-2.5630612181
21
47.8291105664
31
0.0
0
ARC
8
BELT
10
-13.0
20
43.0
30
0.0
40
11.5
50
340.0117511334
51
360.0
0
ARC
8
BELT
10
-13.0
20
43.0
30
0.0
40
11.5
50
0.0
51
24.8297046599
0
LINE
8
BELT
10
-2.1927283983
20
39.0689847969
30
0.0
11
-14.4869072934
21
5.2694384776
31
0.0
0
ENDSEC
0
EOF
