0
SECTION
2
HEADER
9
$ACADVER
1
AC1009
9
$INSUNITS
70
4
0
ENDSEC
0
SECTION
2
ENTITIES
0
ARC
8
BELT
10
0.0
20
0.0
30
0.0
40
16.4154943092
50
167.8129906636
51
360.0
0
LINE
8
BELT
10
16.4154943092
20
0.0
30
0.0
11
16.4154943092
21
79.0
31
0.0
0
ARC
8
BELT
10
0.0
20
79.0
30
0.0
40
16.4154943092
50
0.0
51
194.9437989555
0
LINE
8
BELT
10
-15.8603097408
20
74.7669126701
30
0.0
11
-8.1044463525
21
45.7076502313
31
0.0
0
ARC
8
BELT
10
-18.2493283245
20
43.0
30
0.0
40
10.5
50
347.8129906636
51
360.0
0
ARC
8
BELT
10
-18.2493283245
20
43.0
30
0.0
40
10.5
50
0.0
51
14.9437989555
0
LINE
8
BELT
10
-7.9859586050
20
40.7834165925
30
0.0
11
-16.0455511640
21
3.4653630773
31
0.0
0
ARC
8
BELT
10
0.0
20
0.0
30
0.0
40
15.4154943092
50
167.8129906636
51
360.0
0
LINE
8
BELT
10
15.4154943092
20
0.0
30
0.0
11
15.4154943092
21
79.0
31
0.0
0
ARC
8
BELT
10
0.0
20
79.0
30
0.0
40
15.4154943092
50
0.0
51
194.9437989555
0
LINE
8
BELT
10
-14.8941305053
20
75.0247841207
30
0.0
11
-7.1382671171
21
45.9655216819
31
0.0
0
ARC
8
BELT
10
-18.2493283245
20
43.0
30
0.0
40
11.5
50
347.8129906636
51
360.0
0
ARC
8
BELT
10
-18.2493283245
20
43.0
30
0.0
40
11.5
50
0.0
51
14.9437989555
0
LINE
8
BELT
10
-7.0084948222
20
40.5723134109
30
0.0
11
-15.0680873812
21
3.2542598956
31
0.0
0
ENDSEC
0
EOF
